<?xml version="1.0" encoding="iso-8859-1"?>
<!-- Uploaded to: SVG Repo, www.svgrepo.com, Generator: SVG Repo Mixer Tools -->
<svg fill="#000000" height="800px" width="800px" version="1.1" id="Layer_1" xmlns="http://www.w3.org/2000/svg" xmlns:xlink="http://www.w3.org/1999/xlink" 
	 viewBox="0 0 512 512" xml:space="preserve">
<g>
	<g>
		<path d="M483.215,495.224L454.12,127.818c-0.641-8.085-7.388-14.319-15.499-14.319h-61.326
			c37.11-20.882,68.49-51.846,89.829-90.424c2.663-4.817,2.582-10.681-0.213-15.422C464.115,2.912,459.022,0,453.518,0H58.48
			c-5.504,0-10.597,2.911-13.393,7.651c-2.795,4.74-2.876,10.607-0.211,15.422c21.339,38.58,52.717,69.544,89.829,90.424H73.378
			c-8.111,0-14.859,6.235-15.499,14.319L28.785,495.224c-0.342,4.324,1.137,8.593,4.08,11.779c2.943,3.186,7.082,4.997,11.42,4.997
			h423.432c4.336,0,8.477-1.811,11.42-4.997C482.079,503.817,483.557,499.548,483.215,495.224z M104.504,51.549
			c-6.255-6.392-12.124-13.211-17.53-20.454h338.05c-37.861,50.742-97.82,81.332-162.178,81.332h-13.696
			c-37.953,0-74.372-10.647-105.636-29.783h119.473c8.585,0,15.547-6.961,15.547-15.548s-6.962-15.547-15.547-15.547H104.504z
			 M61.111,480.903l26.631-336.312h336.512l26.633,336.312H61.111z"/>
	</g>
</g>
<g>
	<g>
		<path d="M255.999,158.827c-84.872,0-153.92,69.048-153.92,153.92s69.048,153.92,153.92,153.92s153.92-69.048,153.92-153.92
			S340.872,158.827,255.999,158.827z M255.999,435.573c-67.727,0-122.825-55.099-122.825-122.825s55.099-122.825,122.825-122.825
			s122.825,55.099,122.825,122.825S323.726,435.573,255.999,435.573z"/>
	</g>
</g>
<g>
	<g>
		<path d="M303.883,276.278c-5.202-6.83-14.954-8.152-21.79-2.948l-35.514,27.05c-6.832,5.202-8.152,14.958-2.948,21.788
			c3.06,4.016,7.693,6.127,12.379,6.127c3.285,0,6.595-1.037,9.409-3.179l35.515-27.05
			C307.766,292.864,309.085,283.108,303.883,276.278z"/>
	</g>
</g>
<g>
	<g>
		<path d="M343.857,254.398c-0.202-0.995-0.497-1.975-0.886-2.907c-0.389-0.933-0.871-1.835-1.43-2.69
			c-0.558-0.84-1.211-1.648-1.926-2.363c-0.717-0.715-1.51-1.368-2.365-1.928c-0.84-0.56-1.741-1.042-2.688-1.43
			c-0.934-0.389-1.912-0.684-2.907-0.886c-2.006-0.404-4.058-0.404-6.063,0c-0.995,0.202-1.975,0.498-2.923,0.886
			c-0.933,0.389-1.835,0.871-2.674,1.43c-0.857,0.56-1.65,1.213-2.365,1.928c-0.715,0.715-1.368,1.524-1.943,2.363
			c-0.558,0.855-1.026,1.757-1.415,2.69c-0.389,0.933-0.698,1.912-0.902,2.907c-0.202,1.011-0.294,2.021-0.294,3.032
			c0,1.026,0.093,2.037,0.294,3.047c0.204,0.995,0.513,1.974,0.902,2.907s0.857,1.835,1.415,2.69
			c0.575,0.84,1.228,1.633,1.943,2.363c0.715,0.715,1.508,1.353,2.365,1.928c0.84,0.56,1.741,1.042,2.674,1.43
			c0.948,0.389,1.928,0.684,2.923,0.886c0.995,0.202,2.021,0.295,3.032,0.295c1.009,0,2.037-0.093,3.032-0.295
			c0.995-0.202,1.975-0.497,2.907-0.886c0.947-0.389,1.849-0.871,2.688-1.43c0.855-0.575,1.648-1.213,2.365-1.928
			c0.715-0.731,1.368-1.524,1.926-2.363c0.56-0.855,1.042-1.757,1.43-2.69c0.389-0.933,0.684-1.912,0.886-2.907
			c0.202-1.011,0.311-2.021,0.311-3.047C344.168,256.419,344.059,255.408,343.857,254.398z"/>
	</g>
</g>
<g>
	<g>
		<path d="M324.873,64.065c-0.202-0.995-0.498-1.975-0.886-2.907c-0.389-0.948-0.871-1.85-1.43-2.69
			c-0.558-0.855-1.211-1.648-1.928-2.363c-0.715-0.715-1.522-1.368-2.363-1.928c-0.855-0.56-1.757-1.042-2.69-1.43
			s-1.911-0.7-2.906-0.886c-2.006-0.404-4.073-0.404-6.079,0c-0.997,0.187-1.976,0.498-2.907,0.886
			c-0.934,0.389-1.835,0.871-2.69,1.43c-0.84,0.56-1.633,1.213-2.363,1.928c-0.715,0.715-1.368,1.508-1.928,2.363
			c-0.56,0.84-1.042,1.741-1.43,2.69c-0.389,0.933-0.684,1.912-0.886,2.907c-0.202,0.995-0.309,2.021-0.309,3.032
			c0,1.011,0.107,2.037,0.309,3.032c0.202,0.995,0.497,1.974,0.886,2.907c0.389,0.948,0.871,1.85,1.43,2.69
			c0.56,0.855,1.213,1.648,1.928,2.363c0.731,0.715,1.522,1.368,2.363,1.928c0.857,0.56,1.757,1.042,2.69,1.43
			c0.933,0.389,1.911,0.7,2.907,0.886c1.009,0.202,2.021,0.311,3.047,0.311c1.009,0,2.037-0.109,3.032-0.311
			c0.995-0.187,1.975-0.497,2.906-0.886c0.934-0.389,1.836-0.871,2.69-1.43c0.84-0.56,1.648-1.213,2.363-1.928
			c0.717-0.715,1.37-1.508,1.928-2.363c0.56-0.84,1.042-1.741,1.43-2.69c0.389-0.933,0.684-1.912,0.886-2.907
			c0.202-0.995,0.311-2.021,0.311-3.032C325.184,66.086,325.075,65.06,324.873,64.065z"/>
	</g>
</g>
</svg>